<?xml version="1.0" encoding="utf-8"?>
<!-- Generator: Adobe Illustrator 19.1.0, SVG Export Plug-In . SVG Version: 6.00 Build 0)  -->
<svg version="1.1" id="Layer_1" xmlns="http://www.w3.org/2000/svg" xmlns:xlink="http://www.w3.org/1999/xlink" x="0px" y="0px"
	 viewBox="-363 539.1 113.4 113.4" style="enable-background:new -363 539.1 113.4 113.4;" xml:space="preserve">
<style type="text/css">
	.st0{fill:#DADADA;}
	.st1{fill:#3C3C3B;}
</style>
<g id="Layer_1_1_">
</g>
<g id="Layer_2">
	<g>
		<g>
			<path class="st0" d="M-306.3,638.1c-23.4,0-42.4-19-42.4-42.4c0-23.4,19-42.4,42.4-42.4c23.4,0,42.3,19.1,42.3,42.5
				S-283,638.1-306.3,638.1z"/>
		</g>
		<g>
			<path class="st1" d="M-304.5,628.6c-0.2-2.4,0-30.7,0-30.7h5.2l-0.1-3.3l-5-0.2l-0.1-3.5h5.2l-0.1-3.5h-5.1v-3.5h5.2v-3.5h-5.2
				c0,0-0.1-2.3,0.1-3.5h12.1v-14h-3.5v10.5h-8.7V563h-3.5v10.4h-8.7v-10.3h-3.5v13.8h12.1l0.1,3.5h-5.2v3.5h5.2v3.5h-5.2l-0.1,3.5
				h5.2l-0.1,3.5h-5.1l-0.2,3.5h5.4c0,0,0.2,28.3,0,30.7H-304.5z"/>
		</g>
	</g>
</g>
</svg>
