<?xml version="1.0" encoding="utf-8"?>
<!-- Generator: Adobe Illustrator 19.1.0, SVG Export Plug-In . SVG Version: 6.00 Build 0)  -->
<svg version="1.1" id="Layer_1" xmlns="http://www.w3.org/2000/svg" xmlns:xlink="http://www.w3.org/1999/xlink" x="0px" y="0px"
	 viewBox="-363 539.1 113.4 113.4" style="enable-background:new -363 539.1 113.4 113.4;" xml:space="preserve">
<style type="text/css">
	.st0{fill:#DADADA;}
	.st1{fill:#3C3C3B;}
</style>
<g id="Layer_1_1_">
</g>
<g id="Layer_2">
	<g>
		<g>
			<path class="st0" d="M-306.3,638.1c-23.4,0-42.4-19-42.4-42.4c0-23.4,19-42.4,42.4-42.4c23.4,0,42.3,19.1,42.3,42.5
				S-283,638.1-306.3,638.1z"/>
		</g>
		<g>
			<path class="st1" d="M-304.6,628.6c0,0-0.3-30.5,0.1-31.8c0.6,0,0.6,0,1.3,0.2c7.2,2.3,7.2,8.7,7.8,10.1h3.1
				c0.2-2-0.8-6.6-3.1-8.9c-5.7-5.7-6.4-3.7-9.1-5.1c-0.2-0.8-0.3-2.7,0.1-3.5c0.8-0.4,2.4-0.6,3.6-1.1c3.3-1.3,7.4-5.5,7.6-8
				c-0.7-0.1-1.2,0.1-1.9,0.1c-0.6,0-1.1-0.1-1.7-0.2c-1.1,2.2-5,6-7.7,5.4c-0.1-1.5,0.2-9,0.2-9h11.9l-0.2-13.7l-3.1-0.1l-0.3,10.6
				l-8.6-0.1l-0.2-10.6l-3.2,0.2v10.4h-8.8v-10.3h-3.4l0.1,13.8l12.1,0.4c0,0,0.3,7.6-0.2,8.6c-2.5-0.2-5.8-2.4-7.3-5.3h-3.7
				c0.3,0.8,0.6,1.5,1,2.2c1.5,2.6,3.8,4.6,6.6,5.7c1.2,0.5,2.8,0.7,3.6,1.1l0.1,3.4c-2,1.2-4.8,0.8-7.6,3.6
				c-3.9,3.9-3.9,5.5-4.8,10.4h3.6c-0.3-5.8,6.2-10.6,8.7-10.1l-0.1,31.6H-304.6z"/>
		</g>
	</g>
</g>
</svg>
