<?xml version="1.0" encoding="utf-8"?>
<!-- Generator: Adobe Illustrator 19.1.0, SVG Export Plug-In . SVG Version: 6.00 Build 0)  -->
<svg version="1.1" id="Layer_1" xmlns="http://www.w3.org/2000/svg" xmlns:xlink="http://www.w3.org/1999/xlink" x="0px" y="0px"
	 viewBox="-363 539.1 113.4 113.4" style="enable-background:new -363 539.1 113.4 113.4;" xml:space="preserve">
<style type="text/css">
	.st0{fill:#DADADA;}
	.st1{fill:#3C3C3B;}
</style>
<g id="Layer_1_1_">
</g>
<g id="Layer_2">
	<g>
		<g>
			<path class="st0" d="M-306.3,638.1c-23.4,0-42.4-19-42.4-42.4c0-23.4,19-42.4,42.4-42.4c23.4,0,42.3,19.1,42.3,42.5
				S-283,638.1-306.3,638.1z"/>
		</g>
		<g>
			<g>
				<path class="st1" d="M-304.6,628.6c-0.3-2.7-0.1-16.7,0-20.1c5.2,0.1,8.8,5.6,8.9,10.2h3.5c-0.2-5.3-2.3-8.3-5.6-11.1
					c-2.6-2.3-4.4-2-6.8-2.8l-0.1-3.5h5.2v-3.5h-5.2v-3.5c6.8-0.8,12.7-7,12.4-14h-3.4c-0.3,4-2,7.3-5.5,9.2
					c-0.9,0.5-2.4,1.1-3.5,1.3c0-2.6,0.1-14,0.1-14h12.1v-14h-3.5v10.5h-8.7v-10.4h-3.5v10.4h-8.7v-10.4h-3.5v14h12.1
					c0,0,0.1,11.4,0.1,14c-5.6-1.5-8.3-5-8.5-10.5l-3.4,0.1c-0.1,4.3,1.5,6.8,3.5,9.2c0.9,1.2,2.2,2.1,3.5,2.9l4.8,1.9
					c0,0,0.1,0.1,0.1,0.2c0,0.1,0.1,0.2,0.1,0.3c-0.2-1.1,0.2,0.8,0,0v0.1v2.7h-5.2v3.5h5.2l-0.1,3.6c-0.9,0.3-1.7,0.3-2.6,0.7
					c-5.4,1.9-9.3,6.8-9.3,13.1l3.5,0.1c0-2.9,1-5.3,2.7-7.3c0.9-1.1,3.7-2.9,5.7-3c0.1,3.7,0.3,17.3,0,20.1H-304.6L-304.6,628.6z"
					/>
			</g>
		</g>
	</g>
</g>
</svg>
